<?xml version="1.0" encoding="UTF-8" standalone="no"?><svg xmlns="http://www.w3.org/2000/svg" xmlns:xlink="http://www.w3.org/1999/xlink" contentStyleType="text/css" height="768px" preserveAspectRatio="none" style="width:1974px;height:768px;background:#FFFFFF;" version="1.1" viewBox="0 0 1974 768" width="1974px" zoomAndPan="magnify"><defs/><g><!--MD5=[7d251047d807abd565f3e0bc8a030c95]
cluster Election System--><g id="cluster_Election System"><path d="M194.5,297.5 L320.5,297.5 A3.75,3.75 0 0 1 323,300 L330,319.7969 L1698.5,319.7969 A2.5,2.5 0 0 1 1701,322.2969 L1701,758.5 A2.5,2.5 0 0 1 1698.5,761 L194.5,761 A2.5,2.5 0 0 1 192,758.5 L192,300 A2.5,2.5 0 0 1 194.5,297.5 " fill="none" style="stroke:#000000;stroke-width:1.5;"/><line style="stroke:#000000;stroke-width:1.5;" x1="192" x2="330" y1="319.7969" y2="319.7969"/><text fill="#000000" font-family="sans-serif" font-size="14" font-weight="bold" lengthAdjust="spacing" textLength="125" x="196" y="312.4951">Election System</text></g><g id="elem_UC1"><ellipse cx="709.788" cy="358.8576" fill="#F1F1F1" rx="82.288" ry="18.8576" style="stroke:#181818;stroke-width:0.5;"/><text fill="#000000" font-family="sans-serif" font-size="14" lengthAdjust="spacing" textLength="124" x="646.9505" y="361.9838">Voter Registration</text></g><g id="elem_UC2"><ellipse cx="504.9744" cy="358.8949" fill="#F1F1F1" rx="87.4744" ry="19.8949" style="stroke:#181818;stroke-width:0.5;"/><text fill="#000000" font-family="sans-serif" font-size="14" lengthAdjust="spacing" textLength="136" x="436.9744" y="361.7416">Election Scheduling</text></g><g id="elem_UC3"><ellipse cx="922.0638" cy="358.8128" fill="#F1F1F1" rx="94.5638" ry="21.3128" style="stroke:#181818;stroke-width:0.5;"/><text fill="#000000" font-family="sans-serif" font-size="14" lengthAdjust="spacing" textLength="152" x="846.0638" y="361.6594">Candidate Nomination</text></g><g id="elem_UC4"><ellipse cx="1332.2198" cy="359.244" fill="#F1F1F1" rx="74.2198" ry="17.244" style="stroke:#181818;stroke-width:0.5;"/><text fill="#000000" font-family="sans-serif" font-size="14" lengthAdjust="spacing" textLength="104" x="1277.2198" y="362.9915">Voting Process</text></g><g id="elem_UC5"><ellipse cx="992.9744" cy="493.8949" fill="#F1F1F1" rx="87.4744" ry="19.8949" style="stroke:#181818;stroke-width:0.5;"/><text fill="#000000" font-family="sans-serif" font-size="14" lengthAdjust="spacing" textLength="136" x="924.9744" y="496.7416">Vote Authentication</text></g><g id="elem_UC6"><ellipse cx="992.8073" cy="607.8615" fill="#F1F1F1" rx="72.3073" ry="16.8615" style="stroke:#181818;stroke-width:0.5;"/><text fill="#000000" font-family="sans-serif" font-size="14" lengthAdjust="spacing" textLength="99" x="940.3073" y="611.609">Vote Counting</text></g><g id="elem_UC7"><ellipse cx="1439.9095" cy="723.5819" fill="#F1F1F1" rx="95.9095" ry="21.5819" style="stroke:#181818;stroke-width:0.5;"/><text fill="#000000" font-family="sans-serif" font-size="14" lengthAdjust="spacing" textLength="155" x="1362.4095" y="726.4286">Result Announcement</text></g><g id="elem_UC8"><ellipse cx="295.0368" cy="358.8074" fill="#F1F1F1" rx="87.0368" ry="19.8074" style="stroke:#181818;stroke-width:0.5;"/><text fill="#000000" font-family="sans-serif" font-size="14" lengthAdjust="spacing" textLength="135" x="227.5368" y="361.654">Audit and Oversight</text></g><g id="elem_UC9"><ellipse cx="1563.2105" cy="359.2421" fill="#F1F1F1" rx="121.7105" ry="26.7421" style="stroke:#181818;stroke-width:0.5;"/><text fill="#000000" font-family="sans-serif" font-size="14" lengthAdjust="spacing" textLength="211" x="1457.7105" y="362.0888">Candidate Profile Management</text></g><g id="elem_UC10"><ellipse cx="1136.7932" cy="358.9586" fill="#F1F1F1" rx="85.2932" ry="19.4586" style="stroke:#181818;stroke-width:0.5;"/><text fill="#000000" font-family="sans-serif" font-size="14" lengthAdjust="spacing" textLength="131" x="1071.2932" y="361.8053">Notification System</text></g><!--MD5=[a1b56844d37f21491171a4224be73c27]
entity EC--><g id="elem_EC"><ellipse cx="482" cy="167" fill="#F1F1F1" rx="8" ry="8" style="stroke:#181818;stroke-width:0.5;"/><path d="M482,175 L482,202 M469,183 L495,183 M482,202 L469,217 M482,202 L495,217 " fill="none" style="stroke:#181818;stroke-width:0.5;"/><text fill="#000000" font-family="sans-serif" font-size="14" lengthAdjust="spacing" textLength="140" x="412" y="231.4951">ElectionCommission</text></g><!--MD5=[85ee4d38f1548e1e50a6e87b06491765]
entity Voter--><g id="elem_Voter"><ellipse cx="1310" cy="14" fill="#F1F1F1" rx="8" ry="8" style="stroke:#181818;stroke-width:0.5;"/><path d="M1310,22 L1310,49 M1297,30 L1323,30 M1310,49 L1297,64 M1310,49 L1323,64 " fill="none" style="stroke:#181818;stroke-width:0.5;"/><text fill="#000000" font-family="sans-serif" font-size="14" lengthAdjust="spacing" textLength="37" x="1291.5" y="78.4951">Voter</text></g><!--MD5=[ee906b4d7d0d4883b7e4c6b3820750eb]
entity Candidate--><g id="elem_Candidate"><ellipse cx="1558" cy="167" fill="#F1F1F1" rx="8" ry="8" style="stroke:#181818;stroke-width:0.5;"/><path d="M1558,175 L1558,202 M1545,183 L1571,183 M1558,202 L1545,217 M1558,202 L1571,217 " fill="none" style="stroke:#181818;stroke-width:0.5;"/><text fill="#000000" font-family="sans-serif" font-size="14" lengthAdjust="spacing" textLength="70" x="1523" y="231.4951">Candidate</text></g><!--MD5=[abea0b42432aea0f9ce66e53feda8644]
entity System--><g id="elem_System"><ellipse cx="147" cy="329.5" fill="#F1F1F1" rx="8" ry="8" style="stroke:#181818;stroke-width:0.5;"/><path d="M147,337.5 L147,364.5 M134,345.5 L160,345.5 M147,364.5 L134,379.5 M147,364.5 L160,379.5 " fill="none" style="stroke:#181818;stroke-width:0.5;"/><text fill="#000000" font-family="sans-serif" font-size="14" lengthAdjust="spacing" textLength="51" x="121.5" y="393.9951">System</text></g><g id="elem_GMN283"><path d="M587,184 L587,192.5 L552.12,196.5 L587,200.5 L587,209.1328 A0,0 0 0 0 587,209.1328 L649,209.1328 A0,0 0 0 0 649,209.1328 L649,194 L639,184 L587,184 A0,0 0 0 0 587,184 " fill="#FEFFDD" style="stroke:#181818;stroke-width:0.5;"/><path d="M639,184 L639,194 L649,194 L639,184 " fill="#FEFFDD" style="stroke:#181818;stroke-width:0.5;"/><text fill="#000000" font-family="sans-serif" font-size="13" lengthAdjust="spacing" textLength="41" x="593" y="201.0669">Admin</text></g><!--MD5=[e1d5ddee795c7498f9959df079ca6e13]
link EC to UC1--><g id="link_EC_UC1"><path d="M552.04,226.95 C594.56,244.85 640.75,264.3 641,264.5 C665.76,283.99 685.99,314.5 698,335.33 " fill="none" id="EC-to-UC1" style="stroke:#181818;stroke-width:1.0;"/><polygon fill="#181818" points="700.59,339.88,699.6151,330.0795,698.117,335.5344,692.6621,334.0363,700.59,339.88" style="stroke:#181818;stroke-width:1.0;"/><text fill="#000000" font-family="sans-serif" font-size="13" lengthAdjust="spacing" textLength="60" x="658" y="277.5669">Oversees</text></g><!--MD5=[7ccf5cfc2884c7857d57b7861b6bcee2]
link EC to UC2--><g id="link_EC_UC2"><path d="M477.52,234.5 C476.56,249.21 476.48,266.24 479,281.5 C482,299.65 488.75,319.29 494.62,334.12 " fill="none" id="EC-to-UC2" style="stroke:#181818;stroke-width:1.0;"/><polygon fill="#181818" points="496.57,338.96,496.9414,329.1181,494.713,334.3176,489.5136,332.0893,496.57,338.96" style="stroke:#181818;stroke-width:1.0;"/><text fill="#000000" font-family="sans-serif" font-size="13" lengthAdjust="spacing" textLength="156" x="480" y="277.5669">Schedules and Manages</text></g><!--MD5=[b6a494790a210e16bdd52e71c293f2d3]
link EC to UC3--><g id="link_EC_UC3"><path d="M552.13,228.51 C558.12,230.69 564.13,232.73 570,234.5 C674.75,266.15 710.11,244.8 810,289.5 C838.28,302.15 868.11,320.68 889.86,335.28 " fill="none" id="EC-to-UC3" style="stroke:#181818;stroke-width:1.0;"/><polygon fill="#181818" points="894.11,338.15,888.8932,329.7963,889.9674,335.3502,884.4135,336.4244,894.11,338.15" style="stroke:#181818;stroke-width:1.0;"/><text fill="#000000" font-family="sans-serif" font-size="13" lengthAdjust="spacing" textLength="136" x="788" y="277.5669">Approves Candidates</text></g><!--MD5=[5f56228673e1f4363128748cfc5d10c1]
link EC to UC7--><g id="link_EC_UC7"><path d="M411.63,204.42 C315.66,214.75 149.54,236.07 96,264.5 C45.06,291.55 6,300.32 6,358 C6,358 6,358 6,609 C6,676.01 1014.2,710.44 1339.86,719.82 " fill="none" id="EC-to-UC7" style="stroke:#181818;stroke-width:1.0;"/><polygon fill="#181818" points="1345.08,719.97,1336.1979,715.7146,1340.082,719.8272,1335.9694,723.7113,1345.08,719.97" style="stroke:#181818;stroke-width:1.0;"/><text fill="#000000" font-family="sans-serif" font-size="13" lengthAdjust="spacing" textLength="121" x="7" y="498.5669">Announces Results</text></g><!--MD5=[0e9f33fae14d8000ca5076acbe52a7d8]
link EC to UC8--><g id="link_EC_UC8"><path d="M411.93,230.37 C394.95,240.05 377.52,251.57 363,264.5 C340.14,284.85 320.39,314.12 308.15,334.48 " fill="none" id="EC-to-UC8" style="stroke:#181818;stroke-width:1.0;"/><polygon fill="#181818" points="305.51,338.93,313.5482,333.239,308.0657,334.6325,306.6722,329.15,305.51,338.93" style="stroke:#181818;stroke-width:1.0;"/><text fill="#000000" font-family="sans-serif" font-size="13" lengthAdjust="spacing" textLength="104" x="364" y="277.5669">Conducts Audits</text></g><!--MD5=[0a125b8887743458c30e01bfe7a5657c]
link UC8 to EC--><g id="link_UC8_EC"><path d="M273.34,339.32 C253.2,323.12 221.63,300.59 190,289.5 C172.51,283.37 119.46,295.22 107,281.5 C101.92,275.91 102.15,270.29 107,264.5 C144.43,219.79 308.24,204.88 406.55,199.94 " fill="none" id="UC8-to-EC" style="stroke:#181818;stroke-width:1.0;"/><polygon fill="#181818" points="411.76,199.68,402.576,196.1226,406.7659,199.9233,402.9653,204.1131,411.76,199.68" style="stroke:#181818;stroke-width:1.0;"/><text fill="#000000" font-family="sans-serif" font-size="13" lengthAdjust="spacing" textLength="230" x="108" y="277.5669">Maintains Logs and Verifies Integrity</text></g><!--MD5=[f1c7e4ccb567e3fe191b1a0c6812af0b]
link EC to UC10--><g id="link_EC_UC10"><path d="M552.43,229.37 C558.3,231.33 564.2,233.08 570,234.5 C771.7,283.91 843.94,205.82 1034,289.5 C1062.07,301.86 1090.89,321.75 1110.87,336.93 " fill="none" id="EC-to-UC10" style="stroke:#181818;stroke-width:1.0;"/><polygon fill="#181818" points="1115,340.09,1110.269,331.4518,1111.0242,337.0581,1105.4179,337.8132,1115,340.09" style="stroke:#181818;stroke-width:1.0;"/><text fill="#000000" font-family="sans-serif" font-size="13" lengthAdjust="spacing" textLength="123" x="1012" y="277.5669">Sends Notifications</text></g><!--MD5=[6641d66294ced5d233499e9daab814e2]
link Voter to UC1--><g id="link_Voter_UC1"><path d="M1291.2,46.08 C1229.89,51.95 1031.72,76.57 894,158.5 C816.06,204.87 751.3,294.3 723.96,335.82 " fill="none" id="Voter-to-UC1" style="stroke:#181818;stroke-width:1.0;"/><polygon fill="#181818" points="721.13,340.16,729.3957,334.8049,723.8605,335.9714,722.6939,330.4361,721.13,340.16" style="stroke:#181818;stroke-width:1.0;"/><text fill="#000000" font-family="sans-serif" font-size="13" lengthAdjust="spacing" textLength="59" x="895" y="201.0669">Registers</text></g><!--MD5=[945f0c37087c4e9f54d153e5c68aa292]
link Voter to UC3--><g id="link_Voter_UC3"><path d="M1291.45,46.96 C1241.23,54.52 1100.84,81.75 1018,158.5 C965.44,207.2 938.52,290.76 927.77,332.59 " fill="none" id="Voter-to-UC3" style="stroke:#181818;stroke-width:1.0;"/><polygon fill="#181818" points="926.54,337.48,932.6248,329.7357,927.7661,332.6327,924.8691,327.7739,926.54,337.48" style="stroke:#181818;stroke-width:1.0;"/><text fill="#000000" font-family="sans-serif" font-size="13" lengthAdjust="spacing" textLength="150" x="1019" y="201.0669">Nominates Themselves</text></g><!--MD5=[5a30c7d8d9199f583061d44b93f46ac2]
link Voter to UC4--><g id="link_Voter_UC4"><path d="M1328.58,80.66 C1349.35,123.3 1381.68,196.93 1394,264.5 C1399.37,293.96 1375.93,321.76 1356.34,339.27 " fill="none" id="Voter-to-UC4" style="stroke:#181818;stroke-width:1.0;"/><polygon fill="#181818" points="1352.49,342.63,1361.9035,339.734,1356.26,339.3456,1356.6484,333.7021,1352.49,342.63" style="stroke:#181818;stroke-width:1.0;"/><text fill="#000000" font-family="sans-serif" font-size="13" lengthAdjust="spacing" textLength="70" x="1388" y="201.0669">Casts Vote</text></g><!--MD5=[02322ac9ebdf0aad3b2aa1099ab8ab1c]
link Voter to UC7--><g id="link_Voter_UC7"><path d="M1328.61,45.33 C1426.67,50.17 1879,78.86 1879,195.5 C1879,195.5 1879,195.5 1879,609 C1879,679.07 1666.68,706.58 1537.36,716.83 " fill="none" id="Voter-to-UC7" style="stroke:#181818;stroke-width:1.0;"/><polygon fill="#181818" points="1532.03,717.25,1541.3117,720.5439,1537.0151,716.8643,1540.6947,712.5677,1532.03,717.25" style="stroke:#181818;stroke-width:1.0;"/><text fill="#000000" font-family="sans-serif" font-size="13" lengthAdjust="spacing" textLength="86" x="1880" y="440.0669">Views Results</text></g><!--MD5=[173de7a84d2ca7a195a450afb9cebd6e]
link Voter to UC10--><g id="link_Voter_UC10"><path d="M1291.23,62.77 C1270.15,84.13 1236,121.31 1214,158.5 C1178.91,217.83 1154.22,296.04 1143.3,334.53 " fill="none" id="Voter-to-UC10" style="stroke:#181818;stroke-width:1.0;"/><polygon fill="#181818" points="1141.91,339.47,1148.2019,331.8929,1143.2666,334.6576,1140.502,329.7223,1141.91,339.47" style="stroke:#181818;stroke-width:1.0;"/><text fill="#000000" font-family="sans-serif" font-size="13" lengthAdjust="spacing" textLength="139" x="1215" y="201.0669">Receives Notifications</text></g><!--MD5=[46a8b414a5d2be84055f1802d565fbe0]
link Voter to Candidate--><g id="link_Voter_Candidate"><path d="M1328.86,52.93 C1354.94,64.84 1403.18,87.79 1442,111.5 C1468.57,127.73 1496.9,148.17 1518.91,164.83 " fill="none" id="Voter-to-Candidate" style="stroke:#181818;stroke-width:1.0;"/><polygon fill="#181818" points="1522.94,167.9,1518.209,159.2618,1518.9642,164.8681,1513.3579,165.6232,1522.94,167.9" style="stroke:#181818;stroke-width:1.0;"/><text fill="#000000" font-family="sans-serif" font-size="13" lengthAdjust="spacing" textLength="225" x="1469" y="124.5669">Becomes Candidate upon Approval</text></g><!--MD5=[0106bf31edf89a9d73bdaa3fcdd2ea0a]
link Candidate to UC4--><g id="link_Candidate_UC4"><path d="M1522.76,221.16 C1495.59,239.53 1457.17,265.78 1424,289.5 C1400.81,306.08 1374.78,325.54 1356.35,339.48 " fill="none" id="Candidate-to-UC4" style="stroke:#181818;stroke-width:1.0;"/><polygon fill="#181818" points="1352.3,342.54,1361.8911,340.3016,1356.288,339.524,1357.0655,333.9209,1352.3,342.54" style="stroke:#181818;stroke-width:1.0;"/><text fill="#000000" font-family="sans-serif" font-size="13" lengthAdjust="spacing" textLength="70" x="1457" y="277.5669">Casts Vote</text></g><!--MD5=[136aa0ca7c0c26de0483b8306ddb2b98]
link Candidate to UC7--><g id="link_Candidate_UC7"><path d="M1593.13,210.34 C1645.52,232.02 1738,281.17 1738,358 C1738,358 1738,358 1738,609 C1738,656 1606.91,690.58 1518.62,708.54 " fill="none" id="Candidate-to-UC7" style="stroke:#181818;stroke-width:1.0;"/><polygon fill="#181818" points="1513.66,709.55,1523.2721,711.6965,1518.5618,708.5639,1521.6944,703.8536,1513.66,709.55" style="stroke:#181818;stroke-width:1.0;"/><text fill="#000000" font-family="sans-serif" font-size="13" lengthAdjust="spacing" textLength="86" x="1739" y="498.5669">Views Results</text></g><!--MD5=[46cc21a73424613564e94f6ded72646b]
link Candidate to UC9--><g id="link_Candidate_UC9"><path d="M1559.16,234.73 C1560.04,262.85 1561.22,300.99 1562.05,327.37 " fill="none" id="Candidate-to-UC9" style="stroke:#181818;stroke-width:1.0;"/><polygon fill="#181818" points="1562.2,332.48,1565.9153,323.3588,1562.0429,327.4825,1557.9193,323.6101,1562.2,332.48" style="stroke:#181818;stroke-width:1.0;"/><text fill="#000000" font-family="sans-serif" font-size="13" lengthAdjust="spacing" textLength="97" x="1561" y="277.5669">Updates Profile</text></g><!--MD5=[39e8dc2c8f63eff312257263c9059a33]
link Candidate to UC10--><g id="link_Candidate_UC10"><path d="M1522.79,221.74 C1514.33,226.64 1505.1,231.27 1496,234.5 C1408.39,265.59 1377.47,235.96 1289,264.5 C1266.11,271.88 1261.74,277.31 1241,289.5 C1215.42,304.53 1187.38,323.13 1166.86,337.16 " fill="none" id="Candidate-to-UC10" style="stroke:#181818;stroke-width:1.0;"/><polygon fill="#181818" points="1162.6,340.08,1172.2825,338.2774,1166.7202,337.2474,1167.7503,331.6851,1162.6,340.08" style="stroke:#181818;stroke-width:1.0;"/><text fill="#000000" font-family="sans-serif" font-size="13" lengthAdjust="spacing" textLength="139" x="1290" y="277.5669">Receives Notifications</text></g><!--MD5=[cc9fb125504b85f277ecaa2d2120950c]
link System to UC5--><g id="link_System_UC5"><path d="M172.82,385.72 C178.7,390.23 185.23,394.33 192,397 C289.97,435.65 560.58,413.25 665,427 C758.17,439.27 864.58,462.39 930.28,477.75 " fill="none" id="System-to-UC5" style="stroke:#181818;stroke-width:1.0;"/><polygon fill="#181818" points="935.33,478.93,927.4854,472.975,930.4629,477.7848,925.6531,480.7623,935.33,478.93" style="stroke:#181818;stroke-width:1.0;"/><text fill="#000000" font-family="sans-serif" font-size="13" lengthAdjust="spacing" textLength="130" x="765" y="440.0669">Authenticates Votes</text></g><!--MD5=[21a18936dad38afef2d7e39515caae3e]
link System to UC6--><g id="link_System_UC6"><path d="M172.79,384.35 C178.76,389.07 185.33,393.6 192,397 C443.79,525.62 781.45,580.56 924.44,599.11 " fill="none" id="System-to-UC6" style="stroke:#181818;stroke-width:1.0;"/><polygon fill="#181818" points="929.44,599.76,921.0273,594.6388,924.4813,599.1188,920.0013,602.5728,929.44,599.76" style="stroke:#181818;stroke-width:1.0;"/><text fill="#000000" font-family="sans-serif" font-size="13" lengthAdjust="spacing" textLength="86" x="498" y="498.5669">Counts Votes</text></g><!--MD5=[daf714cc2b0df3c5c19ea576b0489a5d]
link UC4 to UC5--><g id="link_UC4_UC5"><path d="M1297.09,374.15 C1279.91,381.09 1258.89,389.53 1240,397 C1170.78,424.37 1090.41,455.49 1040.62,474.68 " fill="none" id="UC4-to-UC5" style="stroke:#181818;stroke-width:1.0;"/><polygon fill="#181818" points="1035.9,476.5,1045.7363,476.9965,1040.5656,474.7022,1042.8599,469.5315,1035.9,476.5" style="stroke:#181818;stroke-width:1.0;"/><text fill="#000000" font-family="sans-serif" font-size="13" lengthAdjust="spacing" textLength="147" x="1159" y="440.0669">Initiates Authentication</text></g><!--MD5=[3ab3c4f0aa88f122bda36575115a204e]
link UC5 to UC6--><g id="link_UC5_UC6"><path d="M993,514.25 C993,534.12 993,565.03 993,585.64 " fill="none" id="UC5-to-UC6" style="stroke:#181818;stroke-width:1.0;"/><polygon fill="#181818" points="993,590.9,997,581.9,993,585.9,989,581.9,993,590.9" style="stroke:#181818;stroke-width:1.0;"/><text fill="#000000" font-family="sans-serif" font-size="13" lengthAdjust="spacing" textLength="138" x="994" y="557.0669">Passes Verified Votes</text></g><!--MD5=[f92658300d5adc4fe1f3be64a23e2cf6]
link UC6 to UC7--><g id="link_UC6_UC7"><path d="M1040.41,621.04 C1120.35,641.34 1282.14,682.42 1373.42,705.59 " fill="none" id="UC6-to-UC7" style="stroke:#181818;stroke-width:1.0;"/><polygon fill="#181818" points="1378.52,706.89,1370.7757,700.8052,1373.6727,705.6639,1368.8139,708.5609,1378.52,706.89" style="stroke:#181818;stroke-width:1.0;"/><text fill="#000000" font-family="sans-serif" font-size="13" lengthAdjust="spacing" textLength="190" x="1230" y="668.0669">Finalizes and Updates Results</text></g><!--MD5=[1fd5083905608510daeb5213bd79aa04]
@startuml
actor ElectionCommission as EC
actor Voter
actor Candidate
actor System

package "Election System" {
    usecase "Voter Registration" as UC1
    usecase "Election Scheduling" as UC2
    usecase "Candidate Nomination" as UC3
    usecase "Voting Process" as UC4
    usecase "Vote Authentication" as UC5
    usecase "Vote Counting" as UC6
    usecase "Result Announcement" as UC7
    usecase "Audit and Oversight" as UC8
    usecase "Candidate Profile Management" as UC9
    usecase "Notification System" as UC10
}

note right of EC
Admin
end note

EC - -> UC1 : Oversees
EC - -> UC2 : Schedules and Manages
EC - -> UC3 : Approves Candidates
EC - -> UC7 : Announces Results
EC - -> UC8 : Conducts Audits
EC - -> UC10 : Sends Notifications

Voter - -> UC1 : Registers
Voter - -> UC3 : Nominates Themselves
Voter - -> UC4 : Casts Vote
Voter - -> UC7 : Views Results
Voter - -> UC10 : Receives Notifications

Voter - -> Candidate : Becomes Candidate upon Approval

Candidate - -> UC4 : Casts Vote
Candidate - -> UC7 : Views Results
Candidate - -> UC9 : Updates Profile
Candidate - -> UC10 : Receives Notifications

System - -> UC5 : Authenticates Votes
System - -> UC6 : Counts Votes

UC4 - -> UC5 : Initiates Authentication
UC5 - -> UC6 : Passes Verified Votes
UC6 - -> UC7 : Finalizes and Updates Results
UC8 - -> EC : Maintains Logs and Verifies Integrity
@enduml

PlantUML version 1.2022.7(Mon Aug 22 17:01:30 UTC 2022)
(GPL source distribution)
Java Runtime: OpenJDK Runtime Environment
JVM: OpenJDK 64-Bit Server VM
Default Encoding: UTF-8
Language: en
Country: null
--></g></svg>